<?xml version="1.0" standalone="no"?>
<!DOCTYPE svg PUBLIC "-//W3C//DTD SVG 20010904//EN"
 "http://www.w3.org/TR/2001/REC-SVG-20010904/DTD/svg10.dtd">
<svg version="1.0" xmlns="http://www.w3.org/2000/svg"
 width="300.000000pt" height="79.000000pt" viewBox="0 0 300.000000 79.000000"
 preserveAspectRatio="xMidYMid meet">
<metadata>
Created by potrace 1.10, written by Peter Selinger 2001-2011
</metadata>
<g transform="translate(0.000000,79.000000) scale(0.100000,-0.100000)"
fill="#000000" stroke="none">
<path d="M595 545 c-108 -38 -150 -179 -80 -270 72 -95 218 -91 283 8 38 57
37 138 0 194 -43 65 -130 94 -203 68z m42 -27 c6 -7 13 -23 16 -35 7 -30 -18
-31 -49 -2 -13 13 -24 17 -28 10 -4 -6 24 -43 62 -83 38 -40 72 -81 75 -90 7
-19 32 -24 41 -9 10 15 -5 41 -23 41 -9 0 -39 23 -66 51 -45 45 -47 50 -25 47
15 -2 30 -14 38 -30 14 -29 37 -37 45 -15 7 19 -4 37 -22 37 -26 0 -33 12 -14
25 21 15 10 45 -16 45 -11 0 -23 5 -26 10 -11 18 49 11 83 -10 45 -28 72 -76
72 -130 0 -156 -204 -208 -277 -70 -24 45 -31 110 -12 110 5 0 8 4 5 8 -2 4
-1 14 4 21 5 9 8 -6 8 -39 1 -39 6 -58 21 -74 12 -12 21 -30 21 -39 0 -24 20
-31 37 -14 19 19 9 37 -20 38 l-22 0 23 9 c26 11 29 38 5 46 -39 12 -48 23
-53 61 -4 26 -1 44 7 52 7 6 13 8 13 4 0 -4 6 -1 13 8 11 14 31 26 48 28 4 1
11 -5 16 -11z"/>
<path d="M558 470 c6 -8 12 -23 12 -35 0 -12 16 -36 35 -55 19 -19 35 -40 35
-47 0 -19 30 -28 40 -12 10 15 -5 39 -24 39 -17 0 -76 63 -76 82 0 8 -8 22
-17 29 -15 11 -16 11 -5 -1z"/>
<path d="M940 478 c-1 -2 -1 -46 -2 -98 -1 -75 2 -95 13 -95 11 0 13 16 11 75
-3 85 -7 86 69 -22 59 -85 69 -79 69 42 0 82 -3 100 -15 100 -12 0 -15 -15
-15 -77 l0 -78 -51 78 c-29 42 -58 77 -65 77 -8 0 -14 -1 -14 -2z"/>
<path d="M1338 475 c-10 -10 0 -189 11 -193 6 -2 11 10 11 27 0 39 13 39 42 1
12 -16 30 -30 40 -30 16 0 14 6 -14 41 l-33 41 30 24 c30 24 30 24 6 24 -14 0
-35 -10 -48 -22 l-23 -21 0 56 c0 51 -7 67 -22 52z"/>
<path d="M1557 473 c-4 -3 -7 -48 -7 -100 0 -75 3 -93 15 -93 11 0 15 17 17
73 l3 72 34 -72 c19 -40 38 -73 42 -73 5 0 25 32 44 70 19 39 37 70 39 70 2 0
1 -31 -2 -70 -4 -60 -2 -70 12 -70 14 0 16 14 16 100 0 127 -14 131 -69 23
l-39 -78 -38 78 c-36 72 -51 87 -67 70z"/>
<path d="M1140 345 c0 -51 3 -65 15 -65 12 0 15 14 15 65 0 51 -3 65 -15 65
-12 0 -15 -14 -15 -65z"/>
<path d="M1217 392 c-25 -27 -22 -78 5 -96 28 -20 62 -21 77 -3 15 18 3 29
-20 17 -38 -21 -71 20 -49 61 9 17 18 20 41 15 30 -6 49 8 23 18 -29 11 -61 6
-77 -12z"/>
<path d="M1826 395 c-24 -25 -29 -54 -12 -80 36 -55 116 -35 116 29 0 19 -8
40 -18 49 -23 21 -66 22 -86 2z m74 -25 c20 -38 -8 -78 -45 -64 -21 8 -30 51
-15 69 18 21 47 19 60 -5z"/>
<path d="M1960 344 c0 -49 3 -64 14 -64 11 0 16 15 18 53 3 48 5 52 28 52 23
0 25 -4 28 -52 2 -38 7 -53 18 -53 17 0 20 64 4 104 -8 23 -14 26 -60 25 l-50
-2 0 -63z"/>
<path d="M2110 344 c0 -50 3 -64 15 -64 11 0 15 12 15 50 0 45 3 52 25 60 35
13 31 19 -15 18 l-40 0 0 -64z"/>
<path d="M2215 390 c-24 -27 -22 -70 5 -92 44 -35 100 -10 100 46 0 59 -66 89
-105 46z m75 -15 c15 -18 6 -61 -15 -69 -37 -14 -65 26 -45 64 13 24 42 26 60
5z"/>
<path d="M2366 394 c-24 -24 -20 -80 6 -98 28 -20 62 -21 77 -3 15 19 3 29
-20 16 -13 -6 -25 -6 -39 1 -34 18 -22 30 30 30 42 0 50 3 50 18 0 44 -72 69
-104 36z m72 -21 c2 -9 -8 -13 -33 -13 -33 0 -36 2 -25 15 15 18 51 16 58 -2z"/>
</g>
</svg>
