 <svg  version="1.0" xmlns="http://www.w3.org/2000/svg"  width="300.000000pt" height="68.000000pt" viewBox="0 0 300.000000 68.000000"  preserveAspectRatio="xMidYMid meet">  <g transform="translate(0.000000,68.000000) scale(0.100000,-0.100000)" fill="#ffffff" stroke="none"> <path d="M786 499 c-25 -20 -37 -69 -16 -69 6 0 10 -38 10 -93 0 -101 12 -127 57 -127 22 0 53 29 53 50 0 8 14 0 33 -18 36 -35 67 -41 87 -17 11 13 15 13 33 0 29 -20 47 -19 74 7 13 12 23 17 23 11 0 -5 17 -15 38 -22 35 -12 67 -11 103 4 10 3 20 2 24 -4 8 -15 48 -14 63 1 9 9 18 9 37 0 36 -17 59 -15 78 6 14 15 13 21 -8 62 l-23 44 21 43 c21 42 21 43 1 58 -11 9 -33 14 -51 12 -28 -2 -33 0 -33 18 0 30 -19 45 -57 45 -24 0 -38 -7 -55 -30 -16 -22 -30 -30 -52 -30 -17 0 -44 -9 -60 -19 -37 -25 -46 -20 -39 23 4 27 1 36 -17 49 -20 14 -27 14 -55 3 -20 -9 -38 -10 -46 -5 -36 22 -99 2 -99 -33 0 -7 -12 2 -26 20 -30 38 -60 41 -98 11z m113 -79 c23 -38 43 -70 44 -70 1 0 1 31 -1 70 l-4 70 31 0 31 0 0 -126 0 -125 -27 3 c-22 2 -35 16 -64 66 -20 35 -40 66 -44 70 -4 4 -5 -26 -3 -66 l3 -72 -27 0 -28 0 0 106 c0 90 -2 105 -15 100 -16 -6 -19 3 -9 28 4 10 18 16 39 16 30 0 36 -6 74 -70z m201 45 c0 -20 -5 -25 -25 -25 -20 0 -25 5 -25 25 0 20 5 25 25 25 20 0 25 -5 25 -25z m262 -52 l3 -78 18 41 c16 36 24 43 53 46 19 2 34 3 34 2 0 -1 -11 -21 -25 -45 l-24 -44 24 -42 c14 -23 25 -44 25 -47 0 -3 -13 -6 -29 -6 -25 0 -33 7 -53 48 l-23 47 -3 -47 c-3 -43 -5 -48 -28 -48 -24 0 -24 1 -24 100 0 82 -3 100 -15 100 -12 0 -13 4 -3 25 8 18 19 25 39 25 l28 0 3 -77z m-257 -83 l0 -90 -27 0 c-28 0 -28 0 -28 70 0 56 -3 70 -15 70 -13 0 -13 3 -3 20 8 13 24 20 43 20 l30 0 0 -90z m169 82 c8 -14 -21 -43 -38 -36 -23 9 -46 -14 -46 -46 0 -35 23 -54 54 -46 30 7 58 -20 35 -35 -19 -12 -86 -11 -109 1 -22 12 -41 70 -33 102 11 43 43 68 89 68 24 0 45 -3 48 -8z m12 -58 c-3 -9 -6 -21 -6 -27 0 -7 -14 -13 -30 -14 -24 -2 -30 2 -30 17 0 13 7 20 19 20 11 0 23 5 26 10 10 16 28 11 21 -6z"/> <path d="M1589 499 c-6 -13 -12 -75 -13 -147 -1 -104 2 -126 15 -135 23 -15 68 0 80 26 8 18 19 23 50 23 29 0 39 -4 39 -16 0 -41 64 -55 95 -20 18 19 18 19 45 0 44 -31 120 -23 143 16 5 10 13 7 32 -12 28 -28 51 -30 77 -7 17 15 19 15 36 0 22 -20 45 -21 72 -5 15 10 22 10 32 0 18 -18 52 -15 71 6 11 12 17 36 17 70 0 29 5 52 10 52 6 0 10 -11 10 -25 0 -94 120 -148 188 -84 l22 20 35 -27 c66 -50 147 -13 160 72 9 60 -9 110 -45 129 -44 23 -84 19 -121 -12 -22 -19 -34 -24 -37 -15 -6 18 -56 42 -87 42 -14 0 -39 -7 -54 -15 -25 -12 -31 -12 -41 0 -16 19 -120 18 -142 -1 -14 -14 -19 -14 -40 -1 -32 21 -147 21 -171 -1 -16 -15 -20 -14 -48 2 -40 23 -102 16 -135 -15 l-24 -22 -2 34 c-2 53 -2 55 -17 72 -24 30 -101 8 -101 -28 0 -7 -6 -18 -14 -24 -11 -9 -16 -5 -26 19 -22 52 -89 70 -111 29z m102 -73 c13 -36 27 -62 30 -58 4 4 16 32 27 62 17 49 23 55 51 58 29 3 31 1 31 -31 0 -19 3 -75 6 -125 l7 -92 -32 0 -31 0 -1 73 0 72 -18 -45 c-14 -34 -24 -46 -43 -48 -20 -2 -27 5 -45 45 l-21 48 -1 -72 -1 -73 -31 0 c-28 0 -31 3 -25 23 3 12 6 68 6 125 l0 102 33 0 c32 0 34 -3 58 -64z m337 -33 c29 -32 30 -91 1 -127 -27 -34 -98 -37 -129 -6 -24 24 -27 104 -6 132 32 42 96 43 134 1z m210 15 c8 -7 12 -38 12 -89 0 -78 0 -79 -25 -79 -24 0 -25 3 -25 59 0 66 -18 94 -46 70 -12 -10 -15 -27 -12 -71 3 -57 3 -58 -24 -58 -28 0 -28 0 -28 70 0 56 -3 70 -15 70 -13 0 -14 4 -4 21 9 18 18 20 49 16 20 -2 44 -1 51 4 15 9 46 3 67 -13z m172 -6 c0 -21 -5 -28 -22 -29 -30 -3 -38 -20 -38 -80 0 -50 -2 -53 -25 -53 -24 0 -25 2 -25 70 0 56 -3 70 -15 70 -13 0 -14 4 -5 20 9 16 20 20 55 18 25 0 48 2 52 5 14 14 23 6 23 -21z m168 -9 c29 -32 30 -91 1 -127 -27 -34 -98 -37 -129 -6 -24 24 -27 104 -6 132 32 42 96 43 134 1z m185 8 c10 -10 20 -34 24 -55 l6 -38 -57 3 c-41 3 -56 1 -56 -9 0 -19 30 -27 51 -14 17 11 49 7 49 -6 0 -21 -38 -42 -76 -42 -53 0 -74 25 -74 86 0 58 8 74 44 90 35 15 62 10 89 -15z"/> <path d="M1942 368 c-26 -26 -8 -88 25 -88 23 0 38 46 25 75 -13 27 -31 32 -50 13z"/> <path d="M2492 368 c-26 -26 -8 -88 25 -88 23 0 38 46 25 75 -13 27 -31 32 -50 13z"/> <path d="M2687 374 c-14 -14 -6 -24 19 -24 16 0 24 5 22 13 -5 14 -31 21 -41 11z"/> <path d="M412 467 c-6 -7 -25 -52 -43 -101 -29 -81 -30 -89 -15 -104 26 -27 46 -5 83 92 32 84 33 89 17 107 -20 22 -28 23 -42 6z m3 -105 c-15 -42 -32 -81 -36 -86 -19 -21 -17 3 6 64 40 110 47 126 52 112 3 -7 -7 -48 -22 -90z"/> <path d="M222 423 c-92 -44 -90 -77 8 -123 41 -19 52 -21 65 -10 20 17 19 33 -5 55 l-20 18 20 19 c25 23 26 44 3 56 -13 7 -33 2 -71 -15z m68 -11 c0 -5 -18 -17 -40 -27 -45 -20 -50 -30 -17 -38 29 -8 64 -34 55 -42 -7 -7 -103 39 -113 54 -3 6 16 21 42 35 50 26 73 32 73 18z"/> <path d="M517 439 c-22 -13 -22 -34 2 -58 19 -19 19 -20 0 -37 -23 -20 -24 -37 -5 -54 12 -9 25 -7 63 10 48 21 83 47 83 61 0 4 -11 20 -25 35 -14 15 -25 24 -25 20 0 -3 -17 2 -38 13 -27 14 -43 16 -55 10z m69 -45 c24 -14 44 -29 44 -32 0 -7 -93 -62 -104 -62 -20 0 0 23 36 41 l43 22 -43 20 c-23 12 -42 25 -42 29 0 14 20 9 66 -18z"/> </g> </svg> 