<svg version="1.1" id="Layer_1" xmlns="http://www.w3.org/2000/svg" xmlns:xlink="http://www.w3.org/1999/xlink" x="0px" y="0px"
	 width="100%" viewBox="0 0 808 212" enable-background="new 0 0 808 212" xml:space="preserve">
<path fill="#FCFCFC" opacity="1.000000" stroke="none" 
	d="
M588.000000,213.000000 
	C392.047882,213.000000 196.595764,213.000000 1.071821,213.000000 
	C1.071821,142.398590 1.071821,71.797073 1.071821,1.097783 
	C270.333313,1.097783 539.666626,1.097783 808.972778,1.097783 
	C808.972778,71.737617 808.972778,142.368820 808.972778,213.000000 
	C735.463684,213.000000 661.981812,213.000000 588.000000,213.000000 
M157.619324,153.870926 
	C166.732773,157.615585 176.044846,159.061768 185.876556,157.104370 
	C208.903473,152.520020 225.958466,130.553604 223.787537,107.992241 
	C221.332855,82.481873 201.623291,63.961525 176.942215,63.973412 
	C155.292007,63.983837 136.116287,79.051552 131.135757,99.966736 
	C125.987595,121.585960 136.531525,143.426666 157.619324,153.870926 
M478.063354,123.487030 
	C478.063354,111.040405 478.063354,98.593788 478.063354,86.198524 
	C469.163574,85.324623 469.158325,85.321930 465.507874,92.426323 
	C460.651550,101.877472 455.813385,111.337997 450.941864,120.781303 
	C450.322510,121.981949 449.548981,123.103081 448.608337,124.654427 
	C442.771454,113.223190 437.263367,102.427979 431.747742,91.636581 
	C428.307526,84.905655 427.652527,84.629913 419.955536,86.526527 
	C419.955536,103.122597 419.955536,119.695023 419.955536,136.299194 
	C422.406921,136.299194 424.517822,136.299194 427.084473,136.299194 
	C427.084473,124.238800 427.084473,112.397141 427.084473,100.555481 
	C432.989838,109.981407 437.866943,119.699707 443.052429,129.250580 
	C444.505920,131.927673 446.867004,134.111969 448.811768,136.522339 
	C450.780579,134.131989 453.188995,131.980179 454.638855,129.308228 
	C459.736481,119.913750 464.504669,110.340485 469.397888,100.835091 
	C469.769836,100.919983 470.141754,101.004875 470.513672,101.089767 
	C470.513672,112.754311 470.513672,124.418854 470.513672,136.225006 
	C473.343842,136.225006 475.572632,136.225006 478.063324,136.225006 
	C478.063324,132.108978 478.063324,128.294891 478.063354,123.487030 
M289.545624,106.498489 
	C289.545624,112.368767 289.545624,118.239052 289.545624,124.109329 
	C287.497284,123.053619 286.553864,121.786049 285.669739,120.478401 
	C279.146454,110.830139 272.632935,101.175278 266.120575,91.519646 
	C261.670959,84.922394 261.245209,84.751335 253.375031,86.413101 
	C253.375031,103.023628 253.375031,119.603264 253.375031,136.229248 
	C255.953918,136.229248 258.207458,136.229248 261.040497,136.229248 
	C261.040497,123.261063 261.040497,110.594521 261.040497,96.529411 
	C269.285980,108.777588 277.030396,119.572632 283.951324,130.872086 
	C287.233124,136.230164 291.021484,137.648697 296.827576,136.042053 
	C296.827576,119.478088 296.827576,102.869370 296.827576,86.159164 
	C294.438477,86.159164 292.044647,86.159164 289.544952,86.159164 
	C289.544952,92.839653 289.544952,99.169571 289.545624,106.498489 
M360.787628,121.489594 
	C360.787628,126.422401 360.787628,131.355209 360.787628,136.189835 
	C363.472778,136.189835 365.555542,136.189835 367.604034,136.189835 
	C368.650421,122.758003 368.650421,122.758003 371.856903,121.087410 
	C374.611908,124.566658 377.782684,127.841568 380.074310,131.646011 
	C383.075104,136.627777 387.123749,137.260437 392.809692,136.114578 
	C387.213806,129.167526 381.964203,122.650414 376.628815,116.026779 
	C381.758057,111.686058 386.494598,107.677673 391.225128,103.674385 
	C380.060608,99.409737 375.489075,109.628654 367.777954,114.112022 
	C367.777954,104.384644 367.777954,95.302551 367.777954,86.015442 
	C365.381409,86.015442 363.285828,86.015442 360.787537,86.015442 
	C360.787537,97.611237 360.787537,109.051971 360.787628,121.489594 
M633.983643,127.324074 
	C640.412659,138.885834 656.510193,141.110382 663.145996,131.161362 
	C661.680908,129.912018 660.198242,128.647720 658.775635,127.434639 
	C650.330078,134.180634 641.757385,132.039169 640.144409,122.520348 
	C648.751526,122.520348 657.279724,122.520348 665.733887,122.520348 
	C666.571106,111.082153 661.736816,103.950760 652.840637,102.813148 
	C638.274231,100.950447 629.759583,111.556564 633.983643,127.324074 
M605.231567,136.786377 
	C612.020325,137.881882 618.228516,136.894073 622.952271,131.392197 
	C627.979614,125.536758 628.506531,116.968880 624.425720,110.480278 
	C620.448669,104.156517 612.154907,101.053795 604.745728,103.117783 
	C597.897522,105.025497 592.776428,111.588173 592.341125,119.014397 
	C591.875549,126.956848 596.318481,133.356720 605.231567,136.786377 
M509.538422,136.474380 
	C518.263611,133.161194 522.875366,125.897377 521.522522,117.598534 
	C520.103760,108.894676 513.829834,103.055367 505.397797,102.590706 
	C496.882538,102.121452 489.505676,107.281883 487.466492,115.428970 
	C484.613586,126.826942 492.947418,139.730148 509.538422,136.474380 
M529.173279,103.904716 
	C529.173279,114.660019 529.173279,125.415314 529.173279,136.196289 
	C531.820129,136.196289 533.878174,136.196289 536.177856,136.196289 
	C536.177856,129.851944 536.011841,123.856239 536.223755,117.873924 
	C536.442993,111.683052 539.959656,108.199799 545.429871,108.254295 
	C550.743835,108.307220 552.942871,110.918251 553.067139,117.697998 
	C553.179138,123.810623 553.090759,129.926910 553.090759,136.266525 
	C555.679016,136.266525 557.748169,136.266525 560.128784,136.266525 
	C560.128784,129.677246 560.196655,123.368713 560.108398,117.062347 
	C560.030701,111.515007 559.029846,106.144104 553.235413,103.747246 
	C547.656860,101.439697 542.163391,101.953056 537.382080,106.132240 
	C537.181519,106.307579 536.786865,106.260971 536.360535,106.340569 
	C536.194519,105.278320 536.028870,104.218483 535.864075,103.164299 
	C533.695312,103.164299 531.709900,103.164299 529.173279,103.904716 
M347.551788,103.819458 
	C337.754944,100.820923 329.269623,103.738838 325.095673,111.541565 
	C321.100861,119.009460 323.040283,128.687576 329.524597,133.642914 
	C336.400604,138.897598 346.187378,138.386703 353.267853,132.034851 
	C351.821594,130.668411 350.397980,129.323334 349.025116,128.026245 
	C342.511475,132.428055 336.872375,132.487778 333.054413,128.399902 
	C329.246277,124.322556 329.018646,116.713356 332.569885,112.203499 
	C336.317413,107.444374 341.492004,107.185349 348.723602,111.303413 
	C350.072327,109.915070 351.386841,108.561920 352.913208,106.990715 
	C351.324615,105.983025 349.801331,105.016754 347.551788,103.819458 
M580.630127,109.764687 
	C583.081238,109.168800 585.532349,108.572914 588.563049,107.836121 
	C588.764526,106.683502 589.058350,105.002495 589.607666,101.860077 
	C584.678833,102.898399 580.824158,103.710426 578.390503,104.223106 
	C574.844299,103.612045 572.352234,103.182632 569.771973,102.738007 
	C569.771973,114.525017 569.771973,125.406075 569.771973,136.170364 
	C572.193420,136.170364 574.244141,136.170364 576.546753,136.170364 
	C576.546753,130.783707 576.122070,125.763329 576.687439,120.857048 
	C577.104492,117.237846 578.813721,113.767548 580.630127,109.764687 
M308.157166,134.860626 
	C310.304657,135.584091 312.452148,136.307571 315.186279,137.228683 
	C315.186279,130.419861 315.186249,124.948761 315.186249,119.477654 
	C315.186249,114.055748 315.186279,108.633850 315.186279,103.290039 
	C312.571564,103.290039 310.497498,103.290039 308.143616,103.290039 
	C308.143616,113.725258 308.143616,123.849411 308.157166,134.860626 
M315.328888,89.789970 
	C314.188477,86.806854 311.986694,86.084976 309.584839,87.874496 
	C308.605621,88.604088 308.052856,90.815979 308.367279,92.091949 
	C308.631989,93.166161 311.028717,94.816780 311.449371,94.554794 
	C313.037262,93.565804 314.204163,91.900856 315.328888,89.789970 
z"/>
<path fill="#1F1F1F" opacity="1.000000" stroke="none" 
	d="
M157.296082,153.678314 
	C136.531525,143.426666 125.987595,121.585960 131.135757,99.966736 
	C136.116287,79.051552 155.292007,63.983837 176.942215,63.973412 
	C201.623291,63.961525 221.332855,82.481873 223.787537,107.992241 
	C225.958466,130.553604 208.903473,152.520020 185.876556,157.104370 
	C176.044846,159.061768 166.732773,157.615585 157.296082,153.678314 
M155.090652,123.178711 
	C154.341736,121.595345 152.711029,119.825485 152.999512,118.461533 
	C154.130646,113.113434 150.123825,111.621971 146.777115,108.445869 
	C146.777115,110.209106 146.629333,111.068207 146.803802,111.855934 
	C147.416626,114.622765 147.289276,118.217636 149.006500,119.931686 
	C152.170410,123.089737 154.088089,128.483917 160.676285,127.210014 
	C164.062012,126.555344 166.422531,129.600632 166.238113,133.367615 
	C166.055618,137.095337 163.858704,139.192886 160.100784,139.141998 
	C156.237991,139.089706 153.596283,136.306747 154.367691,133.100525 
	C155.415771,128.744293 152.914368,126.947075 150.528091,124.960777 
	C146.172607,121.335342 143.339539,117.268738 144.515762,111.284142 
	C145.624741,105.641647 142.261169,102.491798 138.121918,99.584778 
	C132.260147,115.012444 138.880096,134.090576 153.528854,144.591232 
	C167.793350,154.816437 188.467926,154.111221 202.334412,142.926453 
	C216.993362,131.102463 221.814484,111.874886 214.394470,94.828400 
	C207.207092,78.316360 189.888367,68.057655 172.566284,70.646194 
	C176.014114,72.622154 176.334671,77.715073 181.592758,76.494080 
	C185.430161,75.602997 188.706741,78.195023 189.000015,81.847900 
	C189.269119,85.200020 186.389877,88.555481 183.104156,88.718880 
	C179.690689,88.888634 176.803192,85.600212 176.919464,81.750458 
	C176.957016,80.507683 177.258469,79.004929 176.700470,78.055099 
	C172.735611,71.306320 168.750900,70.090843 161.481262,73.191261 
	C159.850418,73.886810 158.273804,74.709480 155.606842,75.981934 
	C160.008087,80.161430 163.851166,84.025085 167.959915,87.581848 
	C169.189056,88.645882 171.219666,89.479866 172.780914,89.333038 
	C177.329880,88.905212 180.731873,90.300026 183.717300,93.774536 
	C184.743378,94.968697 187.015213,95.598801 188.720047,95.602837 
	C192.855713,95.612648 195.841492,97.751999 195.957718,101.397652 
	C196.065628,104.782539 193.016983,107.918365 189.686996,107.847725 
	C186.090622,107.771439 183.703705,104.798088 183.869919,100.601448 
	C184.045227,96.175201 180.003693,91.592178 175.492462,91.970222 
	C170.500305,92.388573 167.007370,90.673073 163.863281,86.937431 
	C160.871704,83.382996 157.334976,80.287392 154.037933,76.990051 
	C153.902618,77.622093 153.767303,78.254135 153.632004,78.886169 
	C152.149826,79.658714 150.667664,80.431259 148.470108,81.576691 
	C154.983612,86.622154 159.337799,92.746498 156.192184,101.536896 
	C155.347610,98.285049 156.016724,94.532257 154.694077,91.714340 
	C153.172455,88.472504 149.889267,86.057510 147.100693,82.985435 
	C145.792465,84.561348 144.918427,85.614235 144.903015,85.632805 
	C145.696228,89.250496 146.472672,91.694435 146.715393,94.190262 
	C146.988174,96.995209 146.680847,99.851341 146.805054,102.677330 
	C146.954483,106.077461 154.088669,112.436859 156.947250,112.747650 
	C159.418610,113.016357 162.381943,113.933403 163.935242,115.645683 
	C164.962921,116.778557 164.580185,120.228310 163.593704,121.920921 
	C161.883041,124.856071 158.799850,125.188385 155.090652,123.178711 
M141.656509,99.690048 
	C142.473679,100.307220 143.290848,100.924385 144.891586,102.133339 
	C144.549820,97.103325 144.276993,93.087921 144.004166,89.072525 
	C143.452301,89.099014 142.900452,89.125504 142.348587,89.151993 
	C141.253876,92.388489 136.276871,95.033035 141.656509,99.690048 
M189.515610,105.754265 
	C192.737274,105.379112 194.411896,103.382462 193.394226,100.453598 
	C192.973328,99.242241 190.461426,98.422226 188.779495,98.136383 
	C188.024536,98.008087 186.076019,99.861687 186.219315,100.413139 
	C186.691574,102.230644 187.872055,103.864113 189.515610,105.754265 
M161.326538,115.209160 
	C159.343124,115.607735 157.155289,115.654739 155.499817,116.617310 
	C154.997757,116.909241 155.467239,120.174446 156.422592,121.254211 
	C157.173309,122.102707 160.501297,122.191452 160.702133,121.738586 
	C161.504517,119.929260 161.532578,117.776543 161.326538,115.209160 
M163.729233,131.104126 
	C161.892212,130.643585 159.944214,129.628448 158.266556,129.964188 
	C157.467255,130.124146 156.441345,133.115570 156.875473,134.345108 
	C157.298370,135.542786 160.369568,137.112350 160.690399,136.813614 
	C162.106705,135.494843 162.950089,133.560806 163.729233,131.104126 
M179.680420,80.105858 
	C178.170547,83.099052 178.967651,85.543221 182.191818,86.065750 
	C183.508606,86.279160 185.457626,84.536354 186.559097,83.216331 
	C187.027023,82.655571 186.334641,80.057602 185.686295,79.842552 
	C184.002441,79.284019 182.050613,79.533318 179.680420,80.105858 
z"/>
<path fill="#161616" opacity="1.000000" stroke="none" 
	d="
M478.063354,123.983925 
	C478.063324,128.294891 478.063324,132.108978 478.063324,136.225006 
	C475.572632,136.225006 473.343842,136.225006 470.513672,136.225006 
	C470.513672,124.418854 470.513672,112.754311 470.513672,101.089767 
	C470.141754,101.004875 469.769836,100.919983 469.397888,100.835091 
	C464.504669,110.340485 459.736481,119.913750 454.638855,129.308228 
	C453.188995,131.980179 450.780579,134.131989 448.811768,136.522339 
	C446.867004,134.111969 444.505920,131.927673 443.052429,129.250580 
	C437.866943,119.699707 432.989838,109.981407 427.084473,100.555481 
	C427.084473,112.397141 427.084473,124.238800 427.084473,136.299194 
	C424.517822,136.299194 422.406921,136.299194 419.955536,136.299194 
	C419.955536,119.695023 419.955536,103.122597 419.955536,86.526527 
	C427.652527,84.629913 428.307526,84.905655 431.747742,91.636581 
	C437.263367,102.427979 442.771454,113.223190 448.608337,124.654427 
	C449.548981,123.103081 450.322510,121.981949 450.941864,120.781303 
	C455.813385,111.337997 460.651550,101.877472 465.507874,92.426323 
	C469.158325,85.321930 469.163574,85.324623 478.063354,86.198524 
	C478.063354,98.593788 478.063354,111.040405 478.063354,123.983925 
z"/>
<path fill="#191919" opacity="1.000000" stroke="none" 
	d="
M289.545288,105.998985 
	C289.544952,99.169571 289.544952,92.839653 289.544952,86.159164 
	C292.044647,86.159164 294.438477,86.159164 296.827576,86.159164 
	C296.827576,102.869370 296.827576,119.478088 296.827576,136.042053 
	C291.021484,137.648697 287.233124,136.230164 283.951324,130.872086 
	C277.030396,119.572632 269.285980,108.777588 261.040497,96.529411 
	C261.040497,110.594521 261.040497,123.261063 261.040497,136.229248 
	C258.207458,136.229248 255.953918,136.229248 253.375031,136.229248 
	C253.375031,119.603264 253.375031,103.023628 253.375031,86.413101 
	C261.245209,84.751335 261.670959,84.922394 266.120575,91.519646 
	C272.632935,101.175278 279.146454,110.830139 285.669739,120.478401 
	C286.553864,121.786049 287.497284,123.053619 289.545624,124.109329 
	C289.545624,118.239052 289.545624,112.368767 289.545288,105.998985 
z"/>
<path fill="#1A1A1A" opacity="1.000000" stroke="none" 
	d="
M360.787598,120.991150 
	C360.787537,109.051971 360.787537,97.611237 360.787537,86.015442 
	C363.285828,86.015442 365.381409,86.015442 367.777954,86.015442 
	C367.777954,95.302551 367.777954,104.384644 367.777954,114.112022 
	C375.489075,109.628654 380.060608,99.409737 391.225128,103.674385 
	C386.494598,107.677673 381.758057,111.686058 376.628815,116.026779 
	C381.964203,122.650414 387.213806,129.167526 392.809692,136.114578 
	C387.123749,137.260437 383.075104,136.627777 380.074310,131.646011 
	C377.782684,127.841568 374.611908,124.566658 371.856903,121.087410 
	C368.650421,122.758003 368.650421,122.758003 367.604034,136.189835 
	C365.555542,136.189835 363.472778,136.189835 360.787628,136.189835 
	C360.787628,131.355209 360.787628,126.422401 360.787598,120.991150 
z"/>
<path fill="#1C1C1C" opacity="1.000000" stroke="none" 
	d="
M633.872437,126.951599 
	C629.759583,111.556564 638.274231,100.950447 652.840637,102.813148 
	C661.736816,103.950760 666.571106,111.082153 665.733887,122.520348 
	C657.279724,122.520348 648.751526,122.520348 640.144409,122.520348 
	C641.757385,132.039169 650.330078,134.180634 658.775635,127.434639 
	C660.198242,128.647720 661.680908,129.912018 663.145996,131.161362 
	C656.510193,141.110382 640.412659,138.885834 633.872437,126.951599 
M656.552185,110.930908 
	C648.789062,105.705582 640.985718,108.408592 640.335327,116.848595 
	C645.130615,116.848595 649.908386,116.848595 654.686096,116.848595 
	C655.977112,116.848595 657.268066,116.848595 659.309509,116.848595 
	C658.417908,114.680054 657.757751,113.074532 656.552185,110.930908 
z"/>
<path fill="#1A1A1A" opacity="1.000000" stroke="none" 
	d="
M604.844910,136.627625 
	C596.318481,133.356720 591.875549,126.956848 592.341125,119.014397 
	C592.776428,111.588173 597.897522,105.025497 604.745728,103.117783 
	C612.154907,101.053795 620.448669,104.156517 624.425720,110.480278 
	C628.506531,116.968880 627.979614,125.536758 622.952271,131.392197 
	C618.228516,136.894073 612.020325,137.881882 604.844910,136.627625 
M605.124146,109.384071 
	C604.014587,110.374741 602.699463,111.213135 601.832703,112.383621 
	C598.787964,116.495438 598.600708,121.014854 600.596130,125.597527 
	C602.192139,129.263000 605.101501,131.271698 609.142151,131.457184 
	C613.580505,131.660873 616.965576,129.792221 618.835938,125.787079 
	C621.049561,121.046776 620.691956,116.263962 617.477112,112.118050 
	C614.501404,108.280586 610.399841,107.423134 605.124146,109.384071 
z"/>
<path fill="#1A1A1A" opacity="1.000000" stroke="none" 
	d="
M509.146973,136.632996 
	C492.947418,139.730148 484.613586,126.826942 487.466492,115.428970 
	C489.505676,107.281883 496.882538,102.121452 505.397797,102.590706 
	C513.829834,103.055367 520.103760,108.894676 521.522522,117.598534 
	C522.875366,125.897377 518.263611,133.161194 509.146973,136.632996 
M507.775787,130.962784 
	C508.906769,130.277832 510.176758,129.748215 511.145081,128.881546 
	C515.792725,124.721748 515.863342,115.791084 511.365936,111.271912 
	C507.250366,107.136490 500.632812,107.375656 496.762238,111.799721 
	C493.711273,115.286972 492.939972,121.555481 495.237213,125.894135 
	C497.742340,130.625320 501.796143,132.216019 507.775787,130.962784 
z"/>
<path fill="#1C1C1C" opacity="1.000000" stroke="none" 
	d="
M529.448914,103.534508 
	C531.709900,103.164299 533.695312,103.164299 535.864075,103.164299 
	C536.028870,104.218483 536.194519,105.278320 536.360535,106.340569 
	C536.786865,106.260971 537.181519,106.307579 537.382080,106.132240 
	C542.163391,101.953056 547.656860,101.439697 553.235413,103.747246 
	C559.029846,106.144104 560.030701,111.515007 560.108398,117.062347 
	C560.196655,123.368713 560.128784,129.677246 560.128784,136.266525 
	C557.748169,136.266525 555.679016,136.266525 553.090759,136.266525 
	C553.090759,129.926910 553.179138,123.810623 553.067139,117.697998 
	C552.942871,110.918251 550.743835,108.307220 545.429871,108.254295 
	C539.959656,108.199799 536.442993,111.683052 536.223755,117.873924 
	C536.011841,123.856239 536.177856,129.851944 536.177856,136.196289 
	C533.878174,136.196289 531.820129,136.196289 529.173279,136.196289 
	C529.173279,125.415314 529.173279,114.660019 529.448914,103.534508 
z"/>
<path fill="#1A1A1A" opacity="1.000000" stroke="none" 
	d="
M347.914917,103.934967 
	C349.801331,105.016754 351.324615,105.983025 352.913208,106.990715 
	C351.386841,108.561920 350.072327,109.915070 348.723602,111.303413 
	C341.492004,107.185349 336.317413,107.444374 332.569885,112.203499 
	C329.018646,116.713356 329.246277,124.322556 333.054413,128.399902 
	C336.872375,132.487778 342.511475,132.428055 349.025116,128.026245 
	C350.397980,129.323334 351.821594,130.668411 353.267853,132.034851 
	C346.187378,138.386703 336.400604,138.897598 329.524597,133.642914 
	C323.040283,128.687576 321.100861,119.009460 325.095673,111.541565 
	C329.269623,103.738838 337.754944,100.820923 347.914917,103.934967 
z"/>
<path fill="#242424" opacity="1.000000" stroke="none" 
	d="
M580.288696,109.997795 
	C578.813721,113.767548 577.104492,117.237846 576.687439,120.857048 
	C576.122070,125.763329 576.546753,130.783707 576.546753,136.170364 
	C574.244141,136.170364 572.193420,136.170364 569.771973,136.170364 
	C569.771973,125.406075 569.771973,114.525017 569.771973,102.738007 
	C572.352234,103.182632 574.844299,103.612045 578.390503,104.223106 
	C580.824158,103.710426 584.678833,102.898399 589.607666,101.860077 
	C589.058350,105.002495 588.764526,106.683502 588.563049,107.836121 
	C585.532349,108.572914 583.081238,109.168800 580.288696,109.997795 
z"/>
<path fill="#1C1C1C" opacity="1.000000" stroke="none" 
	d="
M308.150391,134.417084 
	C308.143616,123.849411 308.143616,113.725258 308.143616,103.290039 
	C310.497498,103.290039 312.571564,103.290039 315.186279,103.290039 
	C315.186279,108.633850 315.186249,114.055748 315.186249,119.477654 
	C315.186249,124.948761 315.186279,130.419861 315.186279,137.228683 
	C312.452148,136.307571 310.304657,135.584091 308.150391,134.417084 
z"/>
<path fill="#222222" opacity="1.000000" stroke="none" 
	d="
M315.428772,90.139450 
	C314.204163,91.900856 313.037262,93.565804 311.449371,94.554794 
	C311.028717,94.816780 308.631989,93.166161 308.367279,92.091949 
	C308.052856,90.815979 308.605621,88.604088 309.584839,87.874496 
	C311.986694,86.084976 314.188477,86.806854 315.428772,90.139450 
z"/>
<path fill="#F7F7F7" opacity="1.000000" stroke="none" 
	d="
M155.390442,123.412750 
	C158.799850,125.188385 161.883041,124.856071 163.593704,121.920921 
	C164.580185,120.228310 164.962921,116.778557 163.935242,115.645683 
	C162.381943,113.933403 159.418610,113.016357 156.947250,112.747650 
	C154.088669,112.436859 146.954483,106.077461 146.805054,102.677330 
	C146.680847,99.851341 146.988174,96.995209 146.715393,94.190262 
	C146.472672,91.694435 145.696228,89.250496 144.903015,85.632805 
	C144.918427,85.614235 145.792465,84.561348 147.100693,82.985435 
	C149.889267,86.057510 153.172455,88.472504 154.694077,91.714340 
	C156.016724,94.532257 155.347610,98.285049 156.192184,101.536896 
	C159.337799,92.746498 154.983612,86.622154 148.470108,81.576691 
	C150.667664,80.431259 152.149826,79.658714 153.632004,78.886169 
	C153.767303,78.254135 153.902618,77.622093 154.037933,76.990051 
	C157.334976,80.287392 160.871704,83.382996 163.863281,86.937431 
	C167.007370,90.673073 170.500305,92.388573 175.492462,91.970222 
	C180.003693,91.592178 184.045227,96.175201 183.869919,100.601448 
	C183.703705,104.798088 186.090622,107.771439 189.686996,107.847725 
	C193.016983,107.918365 196.065628,104.782539 195.957718,101.397652 
	C195.841492,97.751999 192.855713,95.612648 188.720047,95.602837 
	C187.015213,95.598801 184.743378,94.968697 183.717300,93.774536 
	C180.731873,90.300026 177.329880,88.905212 172.780914,89.333038 
	C171.219666,89.479866 169.189056,88.645882 167.959915,87.581848 
	C163.851166,84.025085 160.008087,80.161430 155.606842,75.981934 
	C158.273804,74.709480 159.850418,73.886810 161.481262,73.191261 
	C168.750900,70.090843 172.735611,71.306320 176.700470,78.055099 
	C177.258469,79.004929 176.957016,80.507683 176.919464,81.750458 
	C176.803192,85.600212 179.690689,88.888634 183.104156,88.718880 
	C186.389877,88.555481 189.269119,85.200020 189.000015,81.847900 
	C188.706741,78.195023 185.430161,75.602997 181.592758,76.494080 
	C176.334671,77.715073 176.014114,72.622154 172.566284,70.646194 
	C189.888367,68.057655 207.207092,78.316360 214.394470,94.828400 
	C221.814484,111.874886 216.993362,131.102463 202.334412,142.926453 
	C188.467926,154.111221 167.793350,154.816437 153.528854,144.591232 
	C138.880096,134.090576 132.260147,115.012444 138.121918,99.584778 
	C142.261169,102.491798 145.624741,105.641647 144.515762,111.284142 
	C143.339539,117.268738 146.172607,121.335342 150.528091,124.960777 
	C152.914368,126.947075 155.415771,128.744293 154.367691,133.100525 
	C153.596283,136.306747 156.237991,139.089706 160.100784,139.141998 
	C163.858704,139.192886 166.055618,137.095337 166.238113,133.367615 
	C166.422531,129.600632 164.062012,126.555344 160.676285,127.210014 
	C154.088089,128.483917 152.170410,123.089737 149.006500,119.931686 
	C147.289276,118.217636 147.416626,114.622765 146.803802,111.855934 
	C146.629333,111.068207 146.777115,110.209106 146.777115,108.445869 
	C150.123825,111.621971 154.130646,113.113434 152.999512,118.461533 
	C152.711029,119.825485 154.341736,121.595345 155.390442,123.412750 
M164.286789,93.746658 
	C165.194366,94.367760 166.101959,94.988861 167.009537,95.609962 
	C167.686478,94.866852 168.363419,94.123741 169.040359,93.380630 
	C167.703903,92.834976 166.367432,92.289330 164.681564,91.081184 
	C163.675095,90.343567 162.668625,89.605949 161.662155,88.868332 
	C161.349289,89.240440 161.036423,89.612549 160.723557,89.984650 
	C161.794708,90.998482 162.865845,92.012314 164.286789,93.746658 
M194.503891,130.789429 
	C197.816040,133.271561 200.837479,132.573288 203.098450,129.473221 
	C205.104568,126.722565 204.633621,123.830383 202.086655,121.480606 
	C201.879517,121.289497 201.049545,121.773491 200.449799,121.850433 
	C200.449799,121.850433 200.167511,121.794548 199.915222,120.562721 
	C194.859650,121.182945 191.672943,118.388702 188.464981,114.926498 
	C182.835373,108.850769 176.815628,103.135162 170.915253,97.313339 
	C170.112976,96.521744 169.056946,95.987328 168.118393,95.333839 
	C167.833191,95.654030 167.547989,95.974213 167.262787,96.294395 
	C168.266678,97.432198 169.214874,98.625458 170.283554,99.698753 
	C176.951828,106.395889 183.736588,112.980942 190.251007,119.823753 
	C191.426773,121.058792 191.402786,123.372086 192.160706,125.086792 
	C192.918793,126.801872 193.962677,128.390625 194.927948,130.022629 
	C194.927948,130.022629 194.968918,130.046204 194.503891,130.789429 
M179.400803,129.188217 
	C183.576050,128.542343 185.661316,125.962540 184.890228,121.936714 
	C184.110641,117.866409 181.110611,116.551201 177.045349,117.197426 
	C175.650940,117.419090 174.142975,116.926460 172.697128,116.761330 
	C172.839020,118.420853 173.200226,119.948616 173.052307,121.425385 
	C172.623428,125.707291 174.091599,128.483276 179.400803,129.188217 
M156.605240,83.127365 
	C154.000885,85.806648 156.713913,85.665138 158.597778,85.951492 
	C158.193893,85.252914 157.789993,84.554344 156.605240,83.127365 
M160.399643,87.261276 
	C159.726181,87.091789 159.052719,86.922310 158.379257,86.752831 
	C158.893936,87.259125 159.408600,87.765427 160.399643,87.261276 
z"/>
<path fill="#D7D7D7" opacity="1.000000" stroke="none" 
	d="
M141.399506,99.434196 
	C136.276871,95.033035 141.253876,92.388489 142.348587,89.151993 
	C142.900452,89.125504 143.452301,89.099014 144.004166,89.072525 
	C144.276993,93.087921 144.549820,97.103325 144.891586,102.133339 
	C143.290848,100.924385 142.473679,100.307220 141.399506,99.434196 
z"/>
<path fill="#EBEBEB" opacity="1.000000" stroke="none" 
	d="
M189.148102,105.661255 
	C187.872055,103.864113 186.691574,102.230644 186.219315,100.413139 
	C186.076019,99.861687 188.024536,98.008087 188.779495,98.136383 
	C190.461426,98.422226 192.973328,99.242241 193.394226,100.453598 
	C194.411896,103.382462 192.737274,105.379112 189.148102,105.661255 
z"/>
<path fill="#EBEBEB" opacity="1.000000" stroke="none" 
	d="
M161.586853,115.480026 
	C161.532578,117.776543 161.504517,119.929260 160.702133,121.738586 
	C160.501297,122.191452 157.173309,122.102707 156.422592,121.254211 
	C155.467239,120.174446 154.997757,116.909241 155.499817,116.617310 
	C157.155289,115.654739 159.343124,115.607735 161.586853,115.480026 
z"/>
<path fill="#EFEFEF" opacity="1.000000" stroke="none" 
	d="
M163.865082,131.476852 
	C162.950089,133.560806 162.106705,135.494843 160.690399,136.813614 
	C160.369568,137.112350 157.298370,135.542786 156.875473,134.345108 
	C156.441345,133.115570 157.467255,130.124146 158.266556,129.964188 
	C159.944214,129.628448 161.892212,130.643585 163.865082,131.476852 
z"/>
<path fill="#EFEFEF" opacity="1.000000" stroke="none" 
	d="
M179.943085,79.783051 
	C182.050613,79.533318 184.002441,79.284019 185.686295,79.842552 
	C186.334641,80.057602 187.027023,82.655571 186.559097,83.216331 
	C185.457626,84.536354 183.508606,86.279160 182.191818,86.065750 
	C178.967651,85.543221 178.170547,83.099052 179.943085,79.783051 
z"/>
<path fill="#EDEDED" opacity="1.000000" stroke="none" 
	d="
M656.824951,111.199959 
	C657.757751,113.074532 658.417908,114.680054 659.309509,116.848595 
	C657.268066,116.848595 655.977112,116.848595 654.686096,116.848595 
	C649.908386,116.848595 645.130615,116.848595 640.335327,116.848595 
	C640.985718,108.408592 648.789062,105.705582 656.824951,111.199959 
z"/>
<path fill="#F7F7F7" opacity="1.000000" stroke="none" 
	d="
M605.468872,109.219017 
	C610.399841,107.423134 614.501404,108.280586 617.477112,112.118050 
	C620.691956,116.263962 621.049561,121.046776 618.835938,125.787079 
	C616.965576,129.792221 613.580505,131.660873 609.142151,131.457184 
	C605.101501,131.271698 602.192139,129.263000 600.596130,125.597527 
	C598.600708,121.014854 598.787964,116.495438 601.832703,112.383621 
	C602.699463,111.213135 604.014587,110.374741 605.468872,109.219017 
z"/>
<path fill="#F7F7F7" opacity="1.000000" stroke="none" 
	d="
M507.371948,131.068207 
	C501.796143,132.216019 497.742340,130.625320 495.237213,125.894135 
	C492.939972,121.555481 493.711273,115.286972 496.762238,111.799721 
	C500.632812,107.375656 507.250366,107.136490 511.365936,111.271912 
	C515.863342,115.791084 515.792725,124.721748 511.145081,128.881546 
	C510.176758,129.748215 508.906769,130.277832 507.371948,131.068207 
z"/>
<path fill="#1F1F1F" opacity="1.000000" stroke="none" 
	d="
M194.881287,130.034744 
	C193.962677,128.390625 192.918793,126.801872 192.160706,125.086792 
	C191.402786,123.372086 191.426773,121.058792 190.251007,119.823753 
	C183.736588,112.980942 176.951828,106.395889 170.283554,99.698753 
	C169.214874,98.625458 168.266678,97.432198 167.262787,96.294395 
	C167.547989,95.974213 167.833191,95.654030 168.118393,95.333839 
	C169.056946,95.987328 170.112976,96.521744 170.915253,97.313339 
	C176.815628,103.135162 182.835373,108.850769 188.464981,114.926498 
	C191.672943,118.388702 194.859650,121.182945 199.486511,121.385193 
	C192.918747,122.283760 194.707779,126.590279 194.881287,130.034744 
z"/>
<path fill="#222222" opacity="1.000000" stroke="none" 
	d="
M178.990753,129.188416 
	C174.091599,128.483276 172.623428,125.707291 173.052307,121.425385 
	C173.200226,119.948616 172.839020,118.420853 172.697128,116.761330 
	C174.142975,116.926460 175.650940,117.419090 177.045349,117.197426 
	C181.110611,116.551201 184.110641,117.866409 184.890228,121.936714 
	C185.661316,125.962540 183.576050,128.542343 178.990753,129.188416 
M180.883041,126.660881 
	C181.263138,124.659462 182.008713,122.619987 181.806656,120.679176 
	C181.743820,120.075661 178.701141,118.967232 177.759964,119.470062 
	C176.492691,120.147118 174.895416,122.952141 175.274658,123.452148 
	C176.426468,124.970749 178.460846,125.819946 180.883041,126.660881 
z"/>
<path fill="#EDEDED" opacity="1.000000" stroke="none" 
	d="
M194.904617,130.028687 
	C194.707779,126.590279 192.918747,122.283760 199.612656,122.001106 
	C200.167511,121.794548 200.449799,121.850433 200.373932,122.308899 
	C200.726868,124.505844 201.945526,127.436836 201.443237,127.769516 
	C199.593811,128.994461 197.174103,129.358383 194.968918,130.046204 
	C194.968918,130.046204 194.927948,130.022629 194.904617,130.028687 
z"/>
<path fill="#1F1F1F" opacity="1.000000" stroke="none" 
	d="
M194.736404,130.417816 
	C197.174103,129.358383 199.593811,128.994461 201.443237,127.769516 
	C201.945526,127.436836 200.726868,124.505844 200.403534,122.355576 
	C201.049545,121.773491 201.879517,121.289497 202.086655,121.480606 
	C204.633621,123.830383 205.104568,126.722565 203.098450,129.473221 
	C200.837479,132.573288 197.816040,133.271561 194.736404,130.417816 
z"/>
<path fill="#252525" opacity="1.000000" stroke="none" 
	d="
M165.030975,91.743675 
	C166.367432,92.289330 167.703903,92.834976 169.040359,93.380630 
	C168.363419,94.123741 167.686478,94.866852 167.009537,95.609962 
	C166.101959,94.988861 165.194366,94.367760 164.362457,93.238052 
	C164.635742,92.400856 164.833359,92.072266 165.030975,91.743675 
z"/>
<path fill="#1F1F1F" opacity="1.000000" stroke="none" 
	d="
M164.856262,91.412430 
	C164.833359,92.072266 164.635742,92.400856 164.187561,92.877792 
	C162.865845,92.012314 161.794708,90.998482 160.723557,89.984650 
	C161.036423,89.612549 161.349289,89.240440 161.662155,88.868332 
	C162.668625,89.605949 163.675095,90.343567 164.856262,91.412430 
z"/>
<path fill="#252525" opacity="1.000000" stroke="none" 
	d="
M156.995667,83.491570 
	C157.789993,84.554344 158.193893,85.252914 158.597778,85.951492 
	C156.713913,85.665138 154.000885,85.806648 156.995667,83.491570 
z"/>
<path fill="#252525" opacity="1.000000" stroke="none" 
	d="
M160.161469,87.766495 
	C159.408600,87.765427 158.893936,87.259125 158.379257,86.752831 
	C159.052719,86.922310 159.726181,87.091789 160.161469,87.766495 
z"/>
<path fill="#EFEFEF" opacity="1.000000" stroke="none" 
	d="
M180.517273,126.795357 
	C178.460846,125.819946 176.426468,124.970749 175.274658,123.452148 
	C174.895416,122.952141 176.492691,120.147118 177.759964,119.470062 
	C178.701141,118.967232 181.743820,120.075661 181.806656,120.679176 
	C182.008713,122.619987 181.263138,124.659462 180.517273,126.795357 
z"/>
</svg>